<svg xmlns="http://www.w3.org/2000/svg" width="250" height="80" viewBox="0 0 250 80">
  <g id="Group_28" data-name="Group 28" transform="translate(-596.036 -5305.237)">
    <g id="Group_26" data-name="Group 26" transform="translate(596.684 5305.237)">
      <path id="Path_58" data-name="Path 58" d="M617.692,5343.937a86.071,86.071,0,0,0-7.037-6.678v14.174h-2.4v-15.348a44.728,44.728,0,0,1-9.79,11.371,11.811,11.811,0,0,0-1.785-1.785c3.824-2.448,8.21-7.6,10.861-12.441H597.7v-2.245h10.555v-6.168H597.551v-2.193h23.66v2.193H610.655v6.168h10.2v2.245h-10.2v1.631c2.04,1.531,7.343,5.966,8.567,7.138Zm2.753-30.9H598.264v-2.193h9.995v-5.457h2.4v5.457h9.79Zm-16.571,9.076a30.124,30.124,0,0,0-2.244-8.056l2.04-.408a26.961,26.961,0,0,1,2.345,7.9Zm8.107-.56a48.361,48.361,0,0,0,2.906-8.006l2.295.612c-.917,2.7-2.141,5.915-3.11,8Zm31.461,3.467H637.12v26.208h-2.4v-26.208h-9.128v2.4c0,7.649-.969,17.387-8.26,24.372a5.492,5.492,0,0,0-1.733-1.682c6.883-6.475,7.648-15.4,7.648-22.69v-17.846l2.193.763c5.507-1.172,11.625-2.753,15.042-4.383l2.039,1.834c-4.283,1.937-11.014,3.518-16.929,4.641v10.3h17.847Z" transform="translate(-596.684 -5305.237)"/>
      <path id="Path_59" data-name="Path 59" d="M694.275,5348.068v2.091H648.536v-2.091H663.12a21.764,21.764,0,0,0-2.7-5.3l2.09-.714a20.432,20.432,0,0,1,2.907,5.456l-1.428.561h14.226l-1.275-.511a39.315,39.315,0,0,0,3.314-5.607l2.193.815c-1.121,1.938-2.294,3.823-3.365,5.3Zm-.917-18.917H649.505v-2.039h43.853Zm-4.641-5.2H653.636v-14.889h10.5v-3.824h2.243v3.824h8.873v-3.824H677.5v3.824h11.218Zm-33.3,17.846v-9.433h31.819v9.433Zm.51-26.31h8.21V5311.1h-8.21Zm0,6.475h8.21v-4.538h-8.21Zm1.887,17.845h26.974V5334.3H657.817Zm8.566-28.706v4.386h8.873V5311.1Zm0,6.323v4.538h8.873v-4.538Zm19.988-6.323H677.5v4.386h8.872Zm0,6.323H677.5v4.538h8.872Z" transform="translate(-596.897 -5305.237)"/>
      <path id="Path_60" data-name="Path 60" d="M727.567,5311.509a71.5,71.5,0,0,1-4.028,6.219v33.756H720.99V5320.89a68.225,68.225,0,0,1-19.836,16.265,21.073,21.073,0,0,0-1.632-1.987c10.453-5.457,19.785-14.432,25.037-23.659H700.594v-2.448h43.494v2.448Zm-.152,9.483c6.271,3.825,14.022,9.433,17.846,13.308l-1.835,1.836c-3.723-3.825-11.422-9.636-17.746-13.563Z" transform="translate(-597.107 -5305.237)"/>
      <path id="Path_61" data-name="Path 61" d="M795.278,5318.9c-.662,21.774-1.224,28.709-2.907,30.8a3.568,3.568,0,0,1-3.162,1.529,51.661,51.661,0,0,1-6.118-.1,6.923,6.923,0,0,0-.713-2.347c2.651.206,5.1.206,6.068.206a1.979,1.979,0,0,0,1.836-.664c1.326-1.631,1.938-8.668,2.548-28.555h-8.77c-.612,13.564-2.906,25.19-12.288,31.92a7.876,7.876,0,0,0-1.989-1.631,22.774,22.774,0,0,0,3.722-3.213c-8.21,1.02-16.724,2.039-22.74,2.753l-.409-2.3c3.11-.3,7.139-.714,11.473-1.222v-5.253h-10.1v-2.091h10.1v-3.772h-9.994v-14.889h9.994v-3.928H750.254v-2.089h11.575v-4.284c-3.417.357-6.986.56-10.147.714a8.75,8.75,0,0,0-.664-1.938c7.495-.458,16.98-1.326,22.08-2.5l1.427,1.886a94.938,94.938,0,0,1-10.35,1.633v4.487H775.6v2.089H764.175v3.928h10.35v14.889h-10.35v3.772h10.4v2.091h-10.4v5c3.467-.357,7.139-.817,10.707-1.224v.56c4.894-6.425,6.373-15.348,6.884-25.393h-6.782v-2.295h6.834c.151-3.774.151-7.647.151-11.626h2.346q0,5.969-.153,11.626h11.116Zm-41.25,7.6h7.8v-4.438h-7.8Zm7.8,6.527v-4.59h-7.8v4.59Zm2.346-10.965v4.438h8.157v-4.438Zm8.157,6.375h-8.157v4.59h8.157Z" transform="translate(-597.313 -5305.237)"/>
      <path id="Path_62" data-name="Path 62" d="M846.876,5323.286H808.022v5.508c0,6.475-.817,15.96-5.151,22.69a8.1,8.1,0,0,0-1.938-1.479c4.131-6.425,4.691-15.144,4.691-21.263v-7.7h41.252Zm-2.6-10.657H804.707v-2.243h18.306v-5.047h2.446v5.047h18.817Zm-15.145,35.54h17.591v2.193H809.96v-2.193h16.775v-7.647H814.549v-2.143h12.186v-6.272H815.976a31.416,31.416,0,0,1-3.774,5.1,14.316,14.316,0,0,0-2.039-1.224,31.028,31.028,0,0,0,6.73-11.064l2.245.508a39.441,39.441,0,0,1-1.99,4.539h9.587v-5.047h2.4v5.047h14.328v2.141H829.131v6.272h13.054v2.143H829.131Zm-13.256-27.279a25.412,25.412,0,0,0-3.009-7.342l2.141-.562a23.751,23.751,0,0,1,3.162,7.24Zm14.939-.714a55.3,55.3,0,0,0,3.417-7.495l2.55.765c-1.276,2.6-2.756,5.506-3.978,7.5Z" transform="translate(-597.524 -5305.237)"/>
    </g>
    <g id="Group_27" data-name="Group 27" transform="translate(596.036 5363.445)">
      <path id="Path_63" data-name="Path 63" d="M606.724,5367.909a4.753,4.753,0,0,0-4.226-2.458,3.913,3.913,0,0,0-3.922,3.977c0,2.182,2.072,3.093,3.757,3.894l3.977,2.073a4.545,4.545,0,0,1,2.375,4.14c0,3.455-3.148,6.05-6.517,6.05a6.431,6.431,0,0,1-6.132-4.475l1.16-.525c.884,2.21,2.513,3.757,5.027,3.757a5.065,5.065,0,0,0,5.136-4.916c0-2.347-2.4-3.343-4.2-4.226l-3.756-1.988a4.175,4.175,0,0,1-2.154-3.728,5.091,5.091,0,0,1,5.33-5.276,5.837,5.837,0,0,1,5.082,2.927Z" transform="translate(-596.036 -5364.208)" fill="gray"/>
      <path id="Path_64" data-name="Path 64" d="M627.189,5373.322v-8.838h1.325v20.825h-1.325v-10.744H614.54v10.744h-1.326v-20.825h1.326v8.838Z" transform="translate(-596.036 -5364.208)" fill="gray"/>
      <path id="Path_65" data-name="Path 65" d="M635.418,5385.309h-1.326v-20.825h1.326Z" transform="translate(-596.036 -5364.208)" fill="gray"/>
      <path id="Path_66" data-name="Path 66" d="M659.8,5386l-17.482-18.589v17.9H641v-21.1l17.482,18.45v-18.174H659.8Z" transform="translate(-596.2 -5364.208)" fill="gray"/>
      <path id="Path_67" data-name="Path 67" d="M670.022,5385.309H668.7v-19.582h-5.386v-1.243h12.1v1.243h-5.386Z" transform="translate(-596.274 -5364.208)" fill="gray"/>
      <path id="Path_68" data-name="Path 68" d="M699.269,5374.9a10.8,10.8,0,1,1-10.8-10.689A10.846,10.846,0,0,1,699.269,5374.9Zm-20.272,0a9.474,9.474,0,1,0,9.474-9.446A9.537,9.537,0,0,0,679,5374.9Z" transform="translate(-596.337 -5364.208)" fill="gray"/>
      <path id="Path_69" data-name="Path 69" d="M701.478,5364.484h1.464l6.131,10.552,6.131-10.552h1.464l-6.932,11.931v8.894H708.41v-8.894Z" transform="translate(-596.414 -5364.208)" fill="gray"/>
      <path id="Path_70" data-name="Path 70" d="M740.5,5374.9a10.8,10.8,0,1,1-10.8-10.689A10.846,10.846,0,0,1,740.5,5374.9Zm-20.272,0a9.474,9.474,0,1,0,9.474-9.446A9.537,9.537,0,0,0,720.23,5374.9Z" transform="translate(-596.489 -5364.208)" fill="gray"/>
      <path id="Path_71" data-name="Path 71" d="M768.478,5373.322v-8.838H769.8v20.825h-1.325v-10.744H755.829v10.744H754.5v-20.825h1.326v8.838Z" transform="translate(-596.604 -5364.208)" fill="gray"/>
      <path id="Path_72" data-name="Path 72" d="M795.738,5374.9a10.8,10.8,0,1,1-10.8-10.689A10.847,10.847,0,0,1,795.738,5374.9Zm-20.273,0a9.474,9.474,0,1,0,9.473-9.446A9.537,9.537,0,0,0,775.465,5374.9Z" transform="translate(-596.693 -5364.208)" fill="gray"/>
      <path id="Path_73" data-name="Path 73" d="M812.692,5364.484h1.326v12.981c0,2.126,0,3.95-1.409,5.689a7.808,7.808,0,0,1-11.323,0c-1.409-1.739-1.409-3.563-1.409-5.689v-12.981H801.2v12.6c0,1.878,0,3.865,1.077,5.247a6.412,6.412,0,0,0,9.335,0c1.077-1.382,1.077-3.369,1.077-5.247Z" transform="translate(-596.876 -5364.208)" fill="gray"/>
      <path id="Path_74" data-name="Path 74" d="M829.042,5367.909a4.751,4.751,0,0,0-4.224-2.458,3.913,3.913,0,0,0-3.923,3.977c0,2.182,2.073,3.093,3.757,3.894l3.977,2.073a4.548,4.548,0,0,1,2.376,4.14c0,3.455-3.149,6.05-6.519,6.05a6.431,6.431,0,0,1-6.132-4.475l1.162-.525c.883,2.21,2.512,3.757,5.024,3.757a5.067,5.067,0,0,0,5.139-4.916c0-2.347-2.4-3.343-4.2-4.226l-3.755-1.988a4.173,4.173,0,0,1-2.156-3.728,5.091,5.091,0,0,1,5.33-5.276,5.838,5.838,0,0,1,5.083,2.927Z" transform="translate(-596.876 -5364.208)" fill="gray"/>
      <path id="Path_75" data-name="Path 75" d="M836.857,5365.727v7.568h8.4v1.243h-8.4v9.528h8.618v1.243h-9.943v-20.825h9.943v1.243Z" transform="translate(-596.876 -5364.208)" fill="gray"/>
    </g>
  </g>
</svg>
