<svg xmlns="http://www.w3.org/2000/svg" width="165" height="53" viewBox="0 0 165 53">
  <g id="Group_25" data-name="Group 25" transform="translate(-367.026 -14.837)">
    <g id="Group_23" data-name="Group 23" transform="translate(367.452 14.837)">
      <path id="Path_40" data-name="Path 40" d="M381.281,40.312a56.4,56.4,0,0,0-4.632-4.4v9.33h-1.578v-10.1a29.421,29.421,0,0,1-6.444,7.485,7.717,7.717,0,0,0-1.175-1.174,24.6,24.6,0,0,0,7.15-8.19h-6.478V31.786h6.947v-4.06h-7.048V26.283H383.6v1.443h-6.948v4.06h6.713v1.478h-6.713v1.073c1.343,1.008,4.833,3.928,5.639,4.7Zm1.812-20.34h-14.6V18.529h6.579V14.937h1.578v3.592h6.444Zm-10.908,5.975a19.839,19.839,0,0,0-1.477-5.3l1.343-.269a17.731,17.731,0,0,1,1.543,5.2Zm5.336-.369a31.828,31.828,0,0,0,1.914-5.27l1.51.4c-.6,1.778-1.409,3.893-2.047,5.269Zm20.71,2.282h-4.162V45.112h-1.578V27.86h-6.008v1.577c0,5.035-.638,11.446-5.437,16.044a3.612,3.612,0,0,0-1.141-1.108c4.531-4.262,5.034-10.135,5.034-14.936V17.69l1.444.5a52.227,52.227,0,0,0,9.9-2.886l1.343,1.207a55.4,55.4,0,0,1-11.144,3.055V26.35h11.748Z" transform="translate(-367.452 -14.837)"/>
      <path id="Path_41" data-name="Path 41" d="M431.692,43.031v1.376H401.584V43.031h9.6A14.337,14.337,0,0,0,409.4,39.54l1.376-.469a13.4,13.4,0,0,1,1.913,3.591l-.939.369h9.364l-.839-.336A25.92,25.92,0,0,0,422.461,39l1.444.536c-.738,1.276-1.511,2.517-2.215,3.491Zm-.6-12.452H402.222V29.237h28.866Zm-3.055-3.424H404.941v-9.8h6.914V14.837h1.477v2.517h5.84V14.837h1.477v2.517h7.384ZM406.115,38.9v-6.21H427.06V38.9Zm.336-17.319h5.4V18.7h-5.4Zm0,4.262h5.4V22.859h-5.4Zm1.242,11.747h17.756V33.969H407.693Zm5.639-18.9v2.887h5.84V18.7Zm0,4.162v2.987h5.84V22.859ZM426.489,18.7h-5.84v2.887h5.84Zm0,4.162h-5.84v2.987h5.84Z" transform="translate(-367.481 -14.837)"/>
      <path id="Path_42" data-name="Path 42" d="M453.607,18.966a47.333,47.333,0,0,1-2.652,4.094V45.28h-1.678V25.141A44.914,44.914,0,0,1,436.22,35.848a13.749,13.749,0,0,0-1.074-1.309,41.983,41.983,0,0,0,16.48-15.573H435.851V17.354h28.631v1.612Zm-.1,6.242a72.172,72.172,0,0,1,11.747,8.761l-1.208,1.208a72.848,72.848,0,0,0-11.68-8.928Z" transform="translate(-367.51 -14.837)"/>
      <path id="Path_43" data-name="Path 43" d="M498.177,23.831c-.435,14.333-.8,18.9-1.913,20.275a2.351,2.351,0,0,1-2.081,1.006,33.968,33.968,0,0,1-4.027-.067,4.571,4.571,0,0,0-.47-1.544c1.745.135,3.357.135,3.994.135a1.3,1.3,0,0,0,1.209-.437c.872-1.074,1.275-5.706,1.677-18.8h-5.773c-.4,8.929-1.913,16.582-8.088,21.012a5.211,5.211,0,0,0-1.31-1.074,14.9,14.9,0,0,0,2.45-2.115c-5.4.672-11.008,1.343-14.969,1.812l-.269-1.51c2.047-.2,4.7-.47,7.552-.8V38.265h-6.645V36.888h6.645V34.406h-6.578V24.6h6.578V22.019H468.54V20.644h7.619v-2.82c-2.249.235-4.6.369-6.679.47a5.728,5.728,0,0,0-.437-1.276,109.954,109.954,0,0,0,14.534-1.644l.94,1.241A62.4,62.4,0,0,1,477.7,17.69v2.954h7.518v1.375H477.7V24.6h6.813v9.8H477.7v2.482h6.847v1.377H477.7v3.29c2.282-.235,4.7-.538,7.048-.806v.369c3.221-4.23,4.195-10.1,4.531-16.716h-4.464v-1.51h4.5c.1-2.484.1-5.034.1-7.653h1.544q0,3.928-.1,7.653h7.317Zm-27.153,5h5.135V25.913h-5.135Zm5.135,4.3V30.109h-5.135V33.13Zm1.545-7.217v2.921h5.369V25.913Zm5.369,4.2H477.7V33.13h5.369Z" transform="translate(-367.539 -14.837)"/>
      <path id="Path_44" data-name="Path 44" d="M532.142,26.718H506.566v3.626c0,4.262-.538,10.506-3.391,14.936a5.3,5.3,0,0,0-1.275-.974c2.719-4.229,3.088-9.969,3.088-14V25.242h27.154ZM530.431,19.7H504.384V18.227h12.05V14.9h1.61v3.323h12.387Zm-9.969,23.4h11.579v1.443h-24.2V43.1h11.042V38.064h-8.021V36.653h8.021V32.525H511.8a20.648,20.648,0,0,1-2.484,3.357,9.444,9.444,0,0,0-1.342-.806,20.428,20.428,0,0,0,4.43-7.283l1.477.335a26.029,26.029,0,0,1-1.309,2.988h6.31V27.793h1.578v3.323h9.431v1.409h-9.431v4.128h8.592v1.411h-8.592Zm-8.727-17.957a16.757,16.757,0,0,0-1.98-4.833l1.409-.37a15.646,15.646,0,0,1,2.082,4.766Zm9.834-.47a36.248,36.248,0,0,0,2.249-4.934l1.679.5c-.84,1.711-1.814,3.625-2.618,4.934Z" transform="translate(-367.568 -14.837)"/>
    </g>
    <g id="Group_24" data-name="Group 24" transform="translate(367.026 53.492)">
      <path id="Path_45" data-name="Path 45" d="M374.061,56.092a3.128,3.128,0,0,0-2.781-1.619,2.577,2.577,0,0,0-2.582,2.618c0,1.437,1.364,2.037,2.472,2.564l2.618,1.364a2.992,2.992,0,0,1,1.564,2.726,4.274,4.274,0,0,1-8.326,1.036l.763-.345a3.488,3.488,0,0,0,3.309,2.473,3.335,3.335,0,0,0,3.381-3.237c0-1.544-1.581-2.2-2.763-2.781l-2.472-1.309a2.747,2.747,0,0,1-1.419-2.454,3.352,3.352,0,0,1,3.509-3.473,3.842,3.842,0,0,1,3.345,1.927Z" transform="translate(-367.026 -53.655)" fill="gray"/>
      <path id="Path_46" data-name="Path 46" d="M387.532,59.655V53.837h.873V67.545h-.873V60.473h-8.326v7.072h-.873V53.837h.873v5.818Z" transform="translate(-367.026 -53.655)" fill="gray"/>
      <path id="Path_47" data-name="Path 47" d="M392.949,67.545h-.873V53.837h.873Z" transform="translate(-367.026 -53.655)" fill="gray"/>
      <path id="Path_48" data-name="Path 48" d="M409,68,397.494,55.764V67.545h-.873V53.655L408.128,65.8V53.837H409Z" transform="translate(-367.049 -53.655)" fill="gray"/>
      <path id="Path_49" data-name="Path 49" d="M415.727,67.545h-.872V54.655H411.31v-.818h7.963v.818h-3.546Z" transform="translate(-367.059 -53.655)" fill="gray"/>
      <path id="Path_50" data-name="Path 50" d="M434.979,60.691a7.108,7.108,0,1,1-7.108-7.036A7.14,7.14,0,0,1,434.979,60.691Zm-13.344,0a6.236,6.236,0,1,0,6.236-6.218A6.278,6.278,0,0,0,421.635,60.691Z" transform="translate(-367.068 -53.655)" fill="gray"/>
      <path id="Path_51" data-name="Path 51" d="M436.433,53.837h.964l4.036,6.946,4.036-6.946h.963l-4.563,7.854v5.854H441V61.691Z" transform="translate(-367.078 -53.655)" fill="gray"/>
      <path id="Path_52" data-name="Path 52" d="M462.121,60.691a7.109,7.109,0,1,1-7.108-7.036A7.14,7.14,0,0,1,462.121,60.691Zm-13.344,0a6.236,6.236,0,1,0,6.236-6.218A6.278,6.278,0,0,0,448.777,60.691Z" transform="translate(-367.089 -53.655)" fill="gray"/>
      <path id="Path_53" data-name="Path 53" d="M480.536,59.655V53.837h.873V67.545h-.873V60.473H472.21v7.072h-.873V53.837h.873v5.818Z" transform="translate(-367.105 -53.655)" fill="gray"/>
      <path id="Path_54" data-name="Path 54" d="M498.48,60.691a7.109,7.109,0,1,1-7.109-7.036A7.14,7.14,0,0,1,498.48,60.691Zm-13.344,0a6.236,6.236,0,1,0,6.235-6.218A6.278,6.278,0,0,0,485.136,60.691Z" transform="translate(-367.117 -53.655)" fill="gray"/>
      <path id="Path_55" data-name="Path 55" d="M509.64,53.837h.873v8.545a5.338,5.338,0,0,1-.927,3.744,5.139,5.139,0,0,1-7.454,0,5.338,5.338,0,0,1-.927-3.744V53.837h.873v8.291a5.59,5.59,0,0,0,.708,3.453,4.219,4.219,0,0,0,6.146,0,5.59,5.59,0,0,0,.708-3.453Z" transform="translate(-367.142 -53.655)" fill="gray"/>
      <path id="Path_56" data-name="Path 56" d="M520.4,56.092a3.128,3.128,0,0,0-2.781-1.619,2.577,2.577,0,0,0-2.582,2.618c0,1.437,1.364,2.037,2.473,2.564l2.618,1.364a3,3,0,0,1,1.564,2.726,4.275,4.275,0,0,1-8.328,1.036l.765-.345a3.486,3.486,0,0,0,3.307,2.473,3.336,3.336,0,0,0,3.383-3.237c0-1.544-1.583-2.2-2.764-2.781l-2.472-1.309a2.747,2.747,0,0,1-1.419-2.454,3.352,3.352,0,0,1,3.509-3.473,3.845,3.845,0,0,1,3.346,1.927Z" transform="translate(-367.142 -53.655)" fill="gray"/>
      <path id="Path_57" data-name="Path 57" d="M525.547,54.655v4.982h5.527v.818h-5.527v6.272h5.673v.818h-6.545V53.837h6.545v.818Z" transform="translate(-367.142 -53.655)" fill="gray"/>
    </g>
  </g>
</svg>
